# Blender 5.0.1
# www.blender.org
mtllib Starfall3.mtl
o Cube
v 0.886899 0.000000 3.938419
v 1.273936 0.742566 3.008392
v 0.886899 0.000000 1.999017
v 0.886899 1.426757 1.999017
v 3.064167 0.000000 3.938419
v 2.612668 1.229513 3.670303
v 3.064167 0.000000 1.999017
v 2.566472 0.849168 2.682616
vn -0.8868 0.4622 -0.0000
vn -0.0000 -0.0000 -1.0000
vn 0.8627 0.5056 -0.0000
vn -0.0000 0.2131 0.9770
vn -0.0000 -1.0000 -0.0000
vn 0.4271 0.8369 -0.3423
vn -0.9337 -0.0000 0.3580
vn 0.4617 0.7045 -0.5390
vn 0.9372 0.3087 -0.1627
vn -0.4848 0.7707 0.4136
vn -0.5190 0.6018 0.6070
vt 0.625000 0.000000
vt 0.375000 0.250000
vt 0.375000 0.000000
vt 0.625000 0.250000
vt 0.375000 0.500000
vt 0.625000 0.500000
vt 0.375000 0.750000
vt 0.625000 0.750000
vt 0.375000 1.000000
vt 0.125000 0.750000
vt 0.125000 0.500000
vt 0.875000 0.500000
vt 0.625000 1.000000
vt 0.875000 0.750000
s 0
f 2/1/1 3/2/1 1/3/1
f 4/4/2 7/5/2 3/2/2
f 8/6/3 5/7/3 7/5/3
f 6/8/4 1/9/4 5/7/4
f 7/5/5 1/10/5 3/11/5
f 4/12/6 6/8/6 8/6/6
f 2/1/7 4/4/7 3/2/7
f 4/4/8 8/6/8 7/5/8
f 8/6/9 6/8/9 5/7/9
f 6/8/10 2/13/10 1/9/10
f 7/5/5 5/7/5 1/10/5
f 4/12/11 2/14/11 6/8/11
